
    <svg width="60" height="60" viewBox="0 0 60 60" fill="none" xmlns="http://www.w3.org/2000/svg">
      <path
        d="M50 40H10V15H27.5V10H5V45H22.5C22.2435 46.3994 21.5058 47.6651 20.4147 48.5782C19.3236 49.4912 17.9477 49.9942 16.525 50H15V55H45V50H43.6C42.1559 50.0236 40.7502 49.5341 39.6332 48.6185C38.5162 47.7029 37.7603 46.4207 37.5 45H55V37.5H50V40ZM34.35 50H25.65C26.6673 48.5102 27.3027 46.7932 27.5 45H32.5C32.6973 46.7932 33.3327 48.5102 34.35 50Z"
        fill="white"
      />
      <path d="M30 5V35H55V11.475L48.525 5H30ZM50 30H35V10H46.475L50 13.525V30Z" fill="white" />
    </svg>


