<svg width="4063" height="710" viewBox="0 0 4063 710" fill="none" xmlns="http://www.w3.org/2000/svg">
<path d="M976.219 308.359C1022.63 308.359 1060.13 323.125 1088.72 352.656C1117.31 381.719 1131.61 422.5 1131.61 475V703.516H1033.17V488.359C1033.17 457.422 1025.44 433.75 1009.97 417.344C994.501 400.469 973.407 392.031 946.688 392.031C919.501 392.031 897.938 400.469 882 417.344C866.532 433.75 858.797 457.422 858.797 488.359V703.516H760.36V313.984H858.797V362.5C871.922 345.625 888.563 332.5 908.719 323.125C929.344 313.281 951.844 308.359 976.219 308.359ZM1586.77 500.312C1586.77 514.375 1585.83 527.031 1583.95 538.281H1299.19C1301.53 566.406 1311.38 588.437 1328.72 604.375C1346.06 620.312 1367.39 628.281 1392.7 628.281C1429.27 628.281 1455.28 612.578 1470.75 581.172H1576.92C1565.67 618.672 1544.11 649.609 1512.23 673.984C1480.36 697.891 1441.22 709.844 1394.81 709.844C1357.31 709.844 1323.56 701.641 1293.56 685.234C1264.03 668.359 1240.83 644.687 1223.95 614.219C1207.55 583.75 1199.34 548.594 1199.34 508.75C1199.34 468.437 1207.55 433.047 1223.95 402.578C1240.36 372.109 1263.33 348.672 1292.86 332.266C1322.39 315.859 1356.38 307.656 1394.81 307.656C1431.84 307.656 1464.89 315.625 1493.95 331.562C1523.48 347.5 1546.22 370.234 1562.16 399.766C1578.56 428.828 1586.77 462.344 1586.77 500.312ZM1484.81 472.187C1484.34 446.875 1475.2 426.719 1457.39 411.719C1439.58 396.25 1417.78 388.516 1392 388.516C1367.63 388.516 1347 396.016 1330.13 411.016C1313.72 425.547 1303.64 445.937 1299.89 472.187H1484.81Z" fill="url(#paint0_linear_304_3316)"/>
<path d="M976.219 308.359C1022.63 308.359 1060.13 323.125 1088.72 352.656C1117.31 381.719 1131.61 422.5 1131.61 475V703.516H1033.17V488.359C1033.17 457.422 1025.44 433.75 1009.97 417.344C994.501 400.469 973.407 392.031 946.688 392.031C919.501 392.031 897.938 400.469 882 417.344C866.532 433.75 858.797 457.422 858.797 488.359V703.516H760.36V313.984H858.797V362.5C871.922 345.625 888.563 332.5 908.719 323.125C929.344 313.281 951.844 308.359 976.219 308.359ZM1586.77 500.312C1586.77 514.375 1585.83 527.031 1583.95 538.281H1299.19C1301.53 566.406 1311.38 588.437 1328.72 604.375C1346.06 620.312 1367.39 628.281 1392.7 628.281C1429.27 628.281 1455.28 612.578 1470.75 581.172H1576.92C1565.67 618.672 1544.11 649.609 1512.23 673.984C1480.36 697.891 1441.22 709.844 1394.81 709.844C1357.31 709.844 1323.56 701.641 1293.56 685.234C1264.03 668.359 1240.83 644.687 1223.95 614.219C1207.55 583.75 1199.34 548.594 1199.34 508.75C1199.34 468.437 1207.55 433.047 1223.95 402.578C1240.36 372.109 1263.33 348.672 1292.86 332.266C1322.39 315.859 1356.38 307.656 1394.81 307.656C1431.84 307.656 1464.89 315.625 1493.95 331.562C1523.48 347.5 1546.22 370.234 1562.16 399.766C1578.56 428.828 1586.77 462.344 1586.77 500.312ZM1484.81 472.187C1484.34 446.875 1475.2 426.719 1457.39 411.719C1439.58 396.25 1417.78 388.516 1392 388.516C1367.63 388.516 1347 396.016 1330.13 411.016C1313.72 425.547 1303.64 445.937 1299.89 472.187H1484.81Z" fill="black"/>
<path d="M1634.15 457.422C1634.15 409.141 1644.93 366.016 1666.49 328.047C1688.52 289.609 1718.29 259.844 1755.79 238.75C1793.76 217.187 1836.18 206.406 1883.05 206.406C1937.9 206.406 1985.94 220.469 2027.19 248.594C2068.44 276.719 2097.27 315.625 2113.68 365.312H2000.48C1989.23 341.875 1973.29 324.297 1952.66 312.578C1932.51 300.859 1909.07 295 1882.35 295C1853.76 295 1828.21 301.797 1805.71 315.391C1783.68 328.516 1766.34 347.266 1753.68 371.641C1741.49 396.016 1735.4 424.609 1735.4 457.422C1735.4 489.766 1741.49 518.359 1753.68 543.203C1766.34 567.578 1783.68 586.562 1805.71 600.156C1828.21 613.281 1853.76 619.844 1882.35 619.844C1909.07 619.844 1932.51 613.984 1952.66 602.266C1973.29 590.078 1989.23 572.266 2000.48 548.828H2113.68C2097.27 598.984 2068.44 638.125 2027.19 666.25C1986.41 693.906 1938.37 707.734 1883.05 707.734C1836.18 707.734 1793.76 697.187 1755.79 676.094C1718.29 654.531 1688.52 624.766 1666.49 586.797C1644.93 548.828 1634.15 505.703 1634.15 457.422ZM2559.3 500.312C2559.3 514.375 2558.37 527.031 2556.49 538.281H2271.73C2274.07 566.406 2283.91 588.437 2301.26 604.375C2318.6 620.312 2339.93 628.281 2365.24 628.281C2401.8 628.281 2427.82 612.578 2443.29 581.172H2549.46C2538.21 618.672 2516.65 649.609 2484.77 673.984C2452.9 697.891 2413.76 709.844 2367.35 709.844C2329.85 709.844 2296.1 701.641 2266.1 685.234C2236.57 668.359 2213.37 644.687 2196.49 614.219C2180.09 583.75 2171.88 548.594 2171.88 508.75C2171.88 468.437 2180.09 433.047 2196.49 402.578C2212.9 372.109 2235.87 348.672 2265.4 332.266C2294.93 315.859 2328.91 307.656 2367.35 307.656C2404.38 307.656 2437.43 315.625 2466.49 331.562C2496.02 347.5 2518.76 370.234 2534.69 399.766C2551.1 428.828 2559.3 462.344 2559.3 500.312ZM2457.35 472.187C2456.88 446.875 2447.74 426.719 2429.93 411.719C2412.12 396.25 2390.32 388.516 2364.54 388.516C2340.16 388.516 2319.54 396.016 2302.66 411.016C2286.26 425.547 2276.18 445.937 2272.43 472.187H2457.35ZM2846.45 308.359C2892.86 308.359 2930.36 323.125 2958.95 352.656C2987.55 381.719 3001.84 422.5 3001.84 475V703.516H2903.4V488.359C2903.4 457.422 2895.67 433.75 2880.2 417.344C2864.73 400.469 2843.64 392.031 2816.92 392.031C2789.73 392.031 2768.17 400.469 2752.23 417.344C2736.76 433.75 2729.03 457.422 2729.03 488.359V703.516H2630.59V313.984H2729.03V362.5C2742.15 345.625 2758.8 332.5 2778.95 323.125C2799.58 313.281 2822.08 308.359 2846.45 308.359ZM3209.5 394.844V583.281C3209.5 596.406 3212.54 606.016 3218.64 612.109C3225.2 617.734 3235.98 620.547 3250.98 620.547H3296.69V703.516H3234.81C3151.84 703.516 3110.36 663.203 3110.36 582.578V394.844H3063.95V313.984H3110.36V217.656H3209.5V313.984H3296.69V394.844H3209.5ZM3729.03 500.312C3729.03 514.375 3728.1 527.031 3726.22 538.281H3441.46C3443.8 566.406 3453.64 588.437 3470.99 604.375C3488.33 620.312 3509.66 628.281 3534.97 628.281C3571.53 628.281 3597.55 612.578 3613.02 581.172H3719.19C3707.94 618.672 3686.38 649.609 3654.5 673.984C3622.63 697.891 3583.49 709.844 3537.08 709.844C3499.58 709.844 3465.83 701.641 3435.83 685.234C3406.3 668.359 3383.1 644.687 3366.22 614.219C3349.81 583.75 3341.61 548.594 3341.61 508.75C3341.61 468.437 3349.81 433.047 3366.22 402.578C3382.63 372.109 3405.6 348.672 3435.13 332.266C3464.66 315.859 3498.64 307.656 3537.08 307.656C3574.11 307.656 3607.16 315.625 3636.22 331.562C3665.75 347.5 3688.49 370.234 3704.42 399.766C3720.83 428.828 3729.03 462.344 3729.03 500.312ZM3627.08 472.187C3626.61 446.875 3617.47 426.719 3599.66 411.719C3581.85 396.25 3560.05 388.516 3534.27 388.516C3509.89 388.516 3489.27 396.016 3472.39 411.016C3455.99 425.547 3445.91 445.937 3442.16 472.187H3627.08ZM3898.76 374.453C3911.42 353.828 3927.82 337.656 3947.98 325.937C3968.6 314.219 3992.04 308.359 4018.29 308.359V411.719H3992.27C3961.34 411.719 3937.9 418.984 3921.96 433.516C3906.49 448.047 3898.76 473.359 3898.76 509.453V703.516H3800.32V313.984H3898.76V374.453Z" fill="#3A49F9"/>
<circle cx="351.562" cy="351.609" r="302.344" stroke="black" stroke-width="98.4375"/>
<circle cx="351.562" cy="351.609" r="70.3125" fill="#3A49F9"/>
<defs>
<linearGradient id="paint0_linear_304_3316" x1="3190.5" y1="-9.16989" x2="1715.4" y2="979.526" gradientUnits="userSpaceOnUse">
<stop offset="0.0001" stop-color="white"/>
<stop offset="1" stop-color="#4646F9"/>
</linearGradient>
</defs>
</svg>
